<svg width="40" height="40" viewBox="0 0 40 40" fill="none" xmlns="http://www.w3.org/2000/svg">
<g clip-path="url(#clip0_58_4588)">
<path d="M20 21.8749C21.0355 21.8749 21.875 21.0354 21.875 19.9999C21.875 18.9643 21.0355 18.1249 20 18.1249C18.9645 18.1249 18.125 18.9643 18.125 19.9999C18.125 21.0354 18.9645 21.8749 20 21.8749Z" fill="#8A6CFF"/>
<path d="M13.125 21.8749C14.1605 21.8749 15 21.0354 15 19.9999C15 18.9643 14.1605 18.1249 13.125 18.1249C12.0895 18.1249 11.25 18.9643 11.25 19.9999C11.25 21.0354 12.0895 21.8749 13.125 21.8749Z" fill="#8A6CFF"/>
<path d="M26.875 21.8748C27.9105 21.8748 28.75 21.0353 28.75 19.9998C28.75 18.9642 27.9105 18.1248 26.875 18.1248C25.8395 18.1248 25 18.9642 25 19.9998C25 21.0353 25.8395 21.8748 26.875 21.8748Z" fill="#8A6CFF"/>
<path d="M12.4886 32.986C15.6394 34.8096 19.3459 35.4251 22.917 34.7177C26.4881 34.0103 29.6801 32.0283 31.8978 29.1413C34.1155 26.2543 35.2076 22.6592 34.9705 19.0265C34.7333 15.3937 33.1831 11.9712 30.6089 9.39696C28.0347 6.82275 24.6122 5.27256 20.9794 5.03542C17.3467 4.79828 13.7516 5.89037 10.8646 8.10808C7.9776 10.3258 5.99563 13.5178 5.28823 17.0889C4.58084 20.66 5.1963 24.3665 7.01987 27.5173L5.06518 33.3532C4.99173 33.5735 4.98107 33.8098 5.0344 34.0358C5.08772 34.2618 5.20292 34.4684 5.36709 34.6326C5.53126 34.7967 5.73791 34.9119 5.96387 34.9653C6.18983 35.0186 6.42618 35.0079 6.64643 34.9345L12.4886 32.986Z" stroke="#8A6CFF" stroke-width="2.5" stroke-linecap="round" stroke-linejoin="round"/>
</g>
<defs>
<clipPath id="clip0_58_4588">
<rect width="40" height="40" fill="white"/>
</clipPath>
</defs>
</svg>
