<svg width="40" height="40" viewBox="0 0 40 40" fill="none" xmlns="http://www.w3.org/2000/svg">
<g clip-path="url(#clip0_58_4571)">
<path d="M6.25049 26.2498L33.7505 34.9998" stroke="#8A6CFF" stroke-width="2.5" stroke-linecap="round" stroke-linejoin="round"/>
<path d="M33.7505 26.2498L6.25049 34.9998" stroke="#8A6CFF" stroke-width="2.5" stroke-linecap="round" stroke-linejoin="round"/>
<path d="M23.75 21.25C23.75 22.2446 23.3549 23.1984 22.6517 23.9017C21.9484 24.6049 20.9946 25 20 25C19.0054 25 18.0516 24.6049 17.3483 23.9017C16.6451 23.1984 16.25 22.2446 16.25 21.25C16.25 17.5 20 15 20 15C20 15 23.75 17.5 23.75 21.25Z" stroke="#8A6CFF" stroke-width="2.5" stroke-linecap="round" stroke-linejoin="round"/>
<path d="M28.1255 16.8748C28.1255 19.0297 27.2695 21.0963 25.7457 22.62C24.222 24.1438 22.1554 24.9998 20.0005 24.9998C17.8456 24.9998 15.779 24.1438 14.2552 22.62C12.7315 21.0963 11.8755 19.0297 11.8755 16.8748C11.8755 9.99976 20.0005 4.99976 20.0005 4.99976C20.0005 4.99976 28.1255 9.99976 28.1255 16.8748Z" stroke="#8A6CFF" stroke-width="2.5" stroke-linecap="round" stroke-linejoin="round"/>
</g>
<defs>
<clipPath id="clip0_58_4571">
<rect width="40" height="40" fill="white"/>
</clipPath>
</defs>
</svg>
