<svg width="40" height="40" viewBox="0 0 40 40" fill="none" xmlns="http://www.w3.org/2000/svg">
<g clip-path="url(#clip0_58_4545)">
<path d="M15.0005 18.75C21.904 18.75 27.5005 16.2316 27.5005 13.125C27.5005 10.0184 21.904 7.5 15.0005 7.5C8.09693 7.5 2.50049 10.0184 2.50049 13.125C2.50049 16.2316 8.09693 18.75 15.0005 18.75Z" stroke="#8A6CFF" stroke-width="2.5" stroke-linecap="round" stroke-linejoin="round"/>
<path d="M2.50049 13.125V19.375C2.50049 22.4813 8.09736 25 15.0005 25C21.9036 25 27.5005 22.4813 27.5005 19.375V13.125" stroke="#8A6CFF" stroke-width="2.5" stroke-linecap="round" stroke-linejoin="round"/>
<path d="M10 18.2811V24.5311" stroke="#8A6CFF" stroke-width="2.5" stroke-linecap="round" stroke-linejoin="round"/>
<path d="M27.5007 15.1125C33.2069 15.6344 37.5007 17.9032 37.5007 20.6251C37.5007 23.7313 31.9038 26.2501 25.0007 26.2501C21.9382 26.2501 19.1319 25.7547 16.9585 24.9313" stroke="#8A6CFF" stroke-width="2.5" stroke-linecap="round" stroke-linejoin="round"/>
<path d="M12.5005 24.8876V26.8751C12.5005 29.9814 18.0974 32.5001 25.0005 32.5001C31.9036 32.5001 37.5005 29.9814 37.5005 26.8751V20.6251" stroke="#8A6CFF" stroke-width="2.5" stroke-linecap="round" stroke-linejoin="round"/>
<path d="M29.9995 25.7812V32.0313" stroke="#8A6CFF" stroke-width="2.5" stroke-linecap="round" stroke-linejoin="round"/>
<path d="M20 18.2811V32.0311" stroke="#8A6CFF" stroke-width="2.5" stroke-linecap="round" stroke-linejoin="round"/>
</g>
<defs>
<clipPath id="clip0_58_4545">
<rect width="40" height="40" fill="white"/>
</clipPath>
</defs>
</svg>
